<svg id="Layer_1" data-name="Layer 1" xmlns="http://www.w3.org/2000/svg" viewBox="0 0 300 114.08"><path d="M26.25.46V62.33L8.75,71.08V88H0V.46ZM17.5,9.21H8.75V61.08l8.75-4.37Z" transform="translate(0 -0.46)" fill="#fff"/><path d="M61.25.46V88H35V32.33l17.5-8.75V9.21H43.75V18L35,22.33V.46ZM52.5,33.58,43.75,38V79.2H52.5Z" transform="translate(0 -0.46)" fill="#fff"/><path d="M78.75,88H70V.46H96.25v35l-6.63,6.62,6.63,6.5V88H87.5V53l-4.38-4.38L78.75,53ZM87.5,31.08V9.21H78.75V39.83Z" transform="translate(0 -0.46)" fill="#fff"/><path d="M113.75,88H105V.46h26.25v35l-6.63,6.62,6.63,6.5V88H122.5V53l-4.38-4.38L113.75,53Zm8.75-56.87V9.21h-8.75V39.83Z" transform="translate(0 -0.46)" fill="#fff"/><path d="M192.5,88V9.83l-8.75,4.38v65H175v-65l-8.75-4.38V88H157.5V.46h8.75L179.38,7,192.5.46h8.75V88Z" transform="translate(0 -0.46)" fill="#fff"/><path d="M210,4.83,218.75.46h8.75l8.75,4.37V83.58L227.5,88h-8.75L210,83.58Zm14.63,4.38h-3l-2.88,1.5v67l2.88,1.5h3l2.87-1.5v-67Z" transform="translate(0 -0.46)" fill="#fff"/><path d="M268.12,9.21h-8.74V88h-8.75V9.21h-8.75V.46h26.24Z" transform="translate(0 -0.46)" fill="#fff"/><path d="M273.75,4.83,282.5.46h8.75L300,4.83V83.58L291.25,88H282.5l-8.75-4.37Zm14.63,4.38h-3l-2.87,1.5v67l2.87,1.5h3l2.87-1.5v-67Z" transform="translate(0 -0.46)" fill="#fff"/><path d="M.32,101.89H11l2,2v3.32L11,109.12l2.22,5.42H10.57l-2-5H2.87v5H.32Zm9,5.83,1-1v-2.16l-.92-.92H2.87v4.09Z" transform="translate(0 -0.46)" fill="#fff"/><path d="M18.59,101.89H29.4v1.83H21.14v3.54h7.62v1.84H21.14v3.61h8.28v1.83H18.59Z" transform="translate(0 -0.46)" fill="#fff"/><path d="M39.28,103.83h-5v-1.94H46.82v1.94h-5v10.71H39.28Z" transform="translate(0 -0.46)" fill="#fff"/><path d="M54.37,101.89h3.74l5.39,12.65H60.77l-1.3-3.15H52.79l-1.28,3.15H49Zm-.79,7.61H58.7l-2.55-6.25Z" transform="translate(0 -0.46)" fill="#fff"/><path d="M68.15,112.82h3V103.6h-3v-1.71h8.59v1.71h-3v9.22h3v1.72H68.15Z" transform="translate(0 -0.46)" fill="#fff"/><path d="M82.1,101.89h2.55V112.6h7.5v1.94H82.1Z" transform="translate(0 -0.46)" fill="#fff"/><path d="M105.88,101.89h10.56l2.06,2v4L116.44,110h-8v4.56h-2.55Zm9.13,6.29.94-.92V104.6l-.94-.91h-6.58v4.49Z" transform="translate(0 -0.46)" fill="#fff"/><path d="M123.68,101.89H134.5v1.83h-8.27v3.54h7.63v1.84h-7.63v3.61h8.29v1.83H123.68Z" transform="translate(0 -0.46)" fill="#fff"/><path d="M140,101.89h10.66l2,2v3.32l-1.91,1.93,2.22,5.42H150.2l-2-5H142.5v5H140Zm9,5.83,1-1v-2.16l-.92-.92h-6.6v4.09Z" transform="translate(0 -0.46)" fill="#fff"/><path d="M158.22,101.89h10.56v1.83h-8v3.73h7.4v1.81h-7.4v5.28h-2.55Z" transform="translate(0 -0.46)" fill="#fff"/><path d="M173.72,112.34v-8.25l2.2-2.2h8.69l2.2,2.2v8.25l-2.2,2.2h-8.69Zm9.42.35,1.12-1.12v-6.71l-1.12-1.12h-5.75l-1.12,1.12v6.71l1.12,1.12Z" transform="translate(0 -0.46)" fill="#fff"/><path d="M192.4,101.89h10.66l2,2v3.32l-1.91,1.93,2.22,5.42h-2.68l-2-5H195v5H192.4Zm9,5.83,1-1v-2.16l-.92-.92H195v4.09Z" transform="translate(0 -0.46)" fill="#fff"/><path d="M210.66,101.89h4l4.59,10.75,4.65-10.75h4v12.65h-2.49V103.65l-4.68,10.89h-3.17L213,103.65v10.89h-2.31Z" transform="translate(0 -0.46)" fill="#fff"/><path d="M238.31,101.89h3.74l5.39,12.65h-2.73l-1.31-3.15h-6.67l-1.28,3.15H232.9Zm-.79,7.61h5.11l-2.54-6.25Z" transform="translate(0 -0.46)" fill="#fff"/><path d="M252.42,101.89h3.34L262.71,112V101.89H265v12.65h-3.35l-6.93-10.1v10.1h-2.32Z" transform="translate(0 -0.46)" fill="#fff"/><path d="M270.61,112.34v-8.25l2.2-2.2h8.55l2.05,2v2.15H280.9v-1.38l-1-1h-5.65l-1.12,1.12v6.73l1.12,1.1h5.65l1-1v-1.45h2.51v2.22l-2.05,2.05h-8.55Z" transform="translate(0 -0.46)" fill="#fff"/><path d="M288.84,101.89h10.82v1.83h-8.27v3.54H299v1.84h-7.63v3.61h8.29v1.83H288.84Z" transform="translate(0 -0.46)" fill="#fff"/></svg>